<svg width="128" height="32" viewBox="0 0 128 32" fill="none" xmlns="http://www.w3.org/2000/svg">
<rect x="3" y="5" width="25" height="22" fill="#FAFAFA"/>
<path d="M37.243 13V4.26265H39.2651V13H37.243ZM41.3387 13V4.26265H43.0112L48.1663 10.5535H47.355V4.26265H49.3521V13H47.692L42.5244 6.70911H43.3358V13H41.3387ZM53.2292 13V5.91027H50.4332V4.26265H58.0472V5.91027H55.2512V13H53.2292ZM60.995 7.78255H65.2014V9.35528H60.995V7.78255ZM61.1447 11.3773H65.9004V13H59.1352V4.26265H65.7381V5.8853H61.1447V11.3773ZM67.5093 13V4.26265H71.2913C72.0735 4.26265 72.7475 4.39163 73.3134 4.64959C73.8792 4.89923 74.3161 5.26121 74.624 5.73552C74.9318 6.20983 75.0858 6.77568 75.0858 7.43306C75.0858 8.08212 74.9318 8.64381 74.624 9.11812C74.3161 9.58411 73.8792 9.94193 73.3134 10.1916C72.7475 10.4412 72.0735 10.566 71.2913 10.566H68.6326L69.5313 9.67981V13H67.5093ZM73.0637 13L70.8794 9.82959H73.0388L75.2481 13H73.0637ZM69.5313 9.90448L68.6326 8.95586H71.1789C71.803 8.95586 72.269 8.82272 72.5769 8.55643C72.8848 8.28183 73.0388 7.90737 73.0388 7.43306C73.0388 6.95043 72.8848 6.57597 72.5769 6.30969C72.269 6.04341 71.803 5.91027 71.1789 5.91027H68.6326L69.5313 4.94916V9.90448ZM75.5395 13L79.4339 4.26265H81.431L85.3378 13H83.2159L80.0205 5.28617H80.8194L77.6115 13H75.5395ZM77.4867 11.1277L78.0234 9.59243H82.5169L83.0661 11.1277H77.4867ZM90.3039 13.1498C89.6299 13.1498 89.0016 13.0416 88.4191 12.8253C87.845 12.6006 87.3457 12.2844 86.9213 11.8766C86.4969 11.4689 86.1641 10.9904 85.9227 10.4412C85.6897 9.892 85.5732 9.28871 85.5732 8.63133C85.5732 7.97394 85.6897 7.37065 85.9227 6.82145C86.1641 6.27224 86.4969 5.79377 86.9213 5.38602C87.354 4.97828 87.8574 4.66623 88.4316 4.44988C89.0058 4.22521 89.634 4.11287 90.3164 4.11287C91.0736 4.11287 91.756 4.24601 92.3634 4.51229C92.9792 4.77025 93.4951 5.15303 93.9112 5.66063L92.6131 6.85889C92.3135 6.51772 91.9806 6.26392 91.6145 6.09749C91.2484 5.92275 90.8489 5.83537 90.4162 5.83537C90.0085 5.83537 89.634 5.90194 89.2929 6.03508C88.9517 6.16823 88.6563 6.35961 88.4066 6.60925C88.157 6.85889 87.9615 7.1543 87.82 7.49547C87.6869 7.83664 87.6203 8.21526 87.6203 8.63133C87.6203 9.04739 87.6869 9.42601 87.82 9.76718C87.9615 10.1084 88.157 10.4038 88.4066 10.6534C88.6563 10.903 88.9517 11.0944 89.2929 11.2276C89.634 11.3607 90.0085 11.4273 90.4162 11.4273C90.8489 11.4273 91.2484 11.3441 91.6145 11.1776C91.9806 11.0029 92.3135 10.7408 92.6131 10.3913L93.9112 11.5895C93.4951 12.0971 92.9792 12.4841 92.3634 12.7504C91.756 13.0166 91.0695 13.1498 90.3039 13.1498ZM97.0012 13V5.91027H94.2053V4.26265H101.819V5.91027H99.0233V13H97.0012ZM102.907 13V4.26265H104.929V13H102.907ZM109.575 13L105.806 4.26265H107.99L111.285 12.0014H110L113.345 4.26265H115.354L111.572 13H109.575ZM117.944 7.78255H122.15V9.35528H117.944V7.78255ZM118.094 11.3773H122.849V13H116.084V4.26265H122.687V5.8853H118.094V11.3773ZM39.1153 23.1945H43.3092V24.8171H39.1153V23.1945ZM39.2651 28H37.243V19.2627H43.846V20.8853H39.2651V28ZM49.0968 28.1498C47.8569 28.1498 46.8875 27.8044 46.1885 27.1138C45.4895 26.4231 45.14 25.437 45.14 24.1556V19.2627H47.1621V24.0807C47.1621 24.9128 47.3327 25.5119 47.6738 25.8781C48.015 26.2442 48.4935 26.4273 49.1092 26.4273C49.725 26.4273 50.2035 26.2442 50.5447 25.8781C50.8858 25.5119 51.0564 24.9128 51.0564 24.0807V19.2627H53.0535V24.1556C53.0535 25.437 52.704 26.4231 52.0051 27.1138C51.3061 27.8044 50.3366 28.1498 49.0968 28.1498ZM55.0517 28V19.2627H56.7243L61.8793 25.5535H61.068V19.2627H63.0651V28H61.405L56.2375 21.7091H57.0488V28H55.0517ZM65.1323 28V19.2627H69.1016C70.0502 19.2627 70.8865 19.4457 71.6105 19.8119C72.3344 20.1697 72.9003 20.6731 73.308 21.3222C73.7157 21.9712 73.9196 22.7409 73.9196 23.6313C73.9196 24.5134 73.7157 25.2831 73.308 25.9405C72.9003 26.5895 72.3344 27.0971 71.6105 27.4633C70.8865 27.8211 70.0502 28 69.1016 28H65.1323ZM67.1544 26.3399H69.0017C69.5842 26.3399 70.0877 26.2317 70.512 26.0154C70.9448 25.7907 71.2776 25.4745 71.5106 25.0667C71.7519 24.659 71.8726 24.1805 71.8726 23.6313C71.8726 23.0738 71.7519 22.5953 71.5106 22.1959C71.2776 21.7882 70.9448 21.4761 70.512 21.2598C70.0877 21.0351 69.5842 20.9227 69.0017 20.9227H67.1544V26.3399ZM78.3154 28.1498C77.6164 28.1498 76.9465 28.0582 76.3058 27.8752C75.6651 27.6838 75.1491 27.4383 74.758 27.1387L75.4446 25.616C75.819 25.8822 76.26 26.1027 76.7676 26.2775C77.2836 26.4439 77.8036 26.5271 78.3279 26.5271C78.7273 26.5271 79.0477 26.4897 79.289 26.4148C79.5386 26.3316 79.7217 26.2192 79.8382 26.0778C79.9547 25.9363 80.0129 25.7741 80.0129 25.591C80.0129 25.358 79.9214 25.1749 79.7383 25.0418C79.5553 24.9003 79.3139 24.788 79.0144 24.7048C78.7148 24.6132 78.382 24.53 78.0158 24.4551C77.658 24.3719 77.296 24.2721 76.9299 24.1556C76.5721 24.0391 76.2434 23.8893 75.9438 23.7062C75.6443 23.5231 75.3988 23.2818 75.2074 22.9823C75.0243 22.6827 74.9328 22.2999 74.9328 21.8339C74.9328 21.3347 75.0659 20.8811 75.3322 20.4734C75.6068 20.0573 76.0146 19.7286 76.5554 19.4873C77.1046 19.2377 77.7912 19.1129 78.615 19.1129C79.1642 19.1129 79.705 19.1794 80.2376 19.3126C80.7702 19.4374 81.2403 19.6288 81.6481 19.8867L81.024 21.422C80.6162 21.189 80.2085 21.0184 79.8007 20.9103C79.393 20.7938 78.9936 20.7355 78.6025 20.7355C78.2114 20.7355 77.891 20.7813 77.6414 20.8728C77.3917 20.9644 77.2128 21.085 77.1046 21.2348C76.9965 21.3763 76.9424 21.5427 76.9424 21.7341C76.9424 21.9587 77.0339 22.1418 77.217 22.2833C77.4001 22.4164 77.6414 22.5246 77.9409 22.6078C78.2405 22.691 78.5692 22.7742 78.927 22.8574C79.2931 22.9407 79.6551 23.0364 80.0129 23.1445C80.3791 23.2527 80.7119 23.3983 81.0115 23.5814C81.3111 23.7645 81.5524 24.0058 81.7354 24.3053C81.9268 24.6049 82.0225 24.9835 82.0225 25.4412C82.0225 25.9322 81.8852 26.3815 81.6106 26.7893C81.336 27.197 80.9241 27.5257 80.3749 27.7753C79.834 28.025 79.1475 28.1498 78.3154 28.1498Z" fill="none"/>
<path fill-rule="evenodd" clip-rule="evenodd" d="M29.674 2.53027H0V29.5582H29.674V2.53027ZM8.64427 7.25586H4.53613V25.0224H8.64427V7.25586ZM16.9651 15.2508V10.5554H26.2718V7.25586H12.857V25.0224H16.9651V18.5503H25.1814V15.2508H16.9651Z" fill="#DC2626"/>
</svg>
